<svg id="6f203b80-78a7-4731-bbf6-158fa9f4dabf" data-name="Capa 1" xmlns="http://www.w3.org/2000/svg" viewBox="0 0 391.32 127.38"><defs><style>.b4d4d8d5-776b-450c-b3a6-0b27a2817a7f{fill:#ff4a1a;}.f10d42b8-c5a5-4c11-babc-f0fc8f4ceeb8{fill:#333232;}</style></defs><title>logo-ictiva-new</title><path class="b4d4d8d5-776b-450c-b3a6-0b27a2817a7f" d="M179.94,134q15.64,0,24.07,13.41a8.81,8.81,0,0,0,7.44,4.16h0.46a8.81,8.81,0,0,0,7.2-13.91,46.23,46.23,0,0,0-10.54-10.24,48.58,48.58,0,0,0-28.8-9.46q-20.61,0-34.38,14.27t-13.77,34.88q0,20.78,13.68,35.05t34.29,14.27a47.13,47.13,0,0,0,28.47-9,48,48,0,0,0,10.37-10.24,8.8,8.8,0,1,0-14.58-9.85,28.61,28.61,0,0,1-8.38,8.51,28.22,28.22,0,0,1-15.88,4.56q-13.68,0-22-9.71t-8.36-23.57q0-14.19,8.36-23.65T179.94,134" transform="translate(-101.28 -89.08)"/><path class="f10d42b8-c5a5-4c11-babc-f0fc8f4ceeb8" d="M270.41,120.49a10.54,10.54,0,0,1-10.14-10.57v-12A8.82,8.82,0,0,0,251,89.09a9.07,9.07,0,0,0-8.35,9.21v14.42a11.76,11.76,0,0,0,1.81,6.28,0.93,0.93,0,0,1-.72,1.51H238a8,8,0,0,0-7.87,9.63,8.37,8.37,0,0,0,8.33,6.43h4.1a0.08,0.08,0,0,1,.08.08v68.65a8.82,8.82,0,0,0,9.24,8.79,9.07,9.07,0,0,0,8.35-9.2V136.64a0.08,0.08,0,0,1,.08-0.08h10.46a8,8,0,0,0,7.53-10.84c-1.17-3.25-4.49-5.1-7.94-5.23" transform="translate(-101.28 -89.08)"/><path class="f10d42b8-c5a5-4c11-babc-f0fc8f4ceeb8" d="M383.56,120.5a8.65,8.65,0,0,0-8.13,5.72L355.3,182.37a1.1,1.1,0,0,1-.09.28l-0.11.24a2,2,0,0,1-1.78,1.08,2,2,0,0,1-1.82-1.15,0.42,0.42,0,0,1-.06-0.17l0-.07a0.68,0.68,0,0,1-.06-0.19l-20.61-56.21a8.63,8.63,0,1,0-16.12,6.15l30.19,76a9.06,9.06,0,0,0,16.86,0l29.93-76a8.63,8.63,0,0,0-8-11.79" transform="translate(-101.28 -89.08)"/><path class="f10d42b8-c5a5-4c11-babc-f0fc8f4ceeb8" d="M483.83,120.5a8.78,8.78,0,0,0-8.78,8.78v0.07l0,0.22a1.64,1.64,0,0,1-2.78.82c-0.12-.14-0.23-0.3-0.36-0.44v0h0a32.17,32.17,0,0,0-10.67-8A42.27,42.27,0,0,0,443,118q-21.29,0-35.5,14.19t-14.17,35.47q0,21.13,14.26,35T443,216.46a40.29,40.29,0,0,0,18.49-4.31,30.82,30.82,0,0,0,10.44-8.44h0a0.15,0.15,0,0,1,0-.05l0.26-.32a1.64,1.64,0,0,1,2.86.73v1.23a8.78,8.78,0,1,0,17.55,0v-76a8.78,8.78,0,0,0-8.78-8.78m-17.9,70.28a31.21,31.21,0,0,1-23.14,9.62,30,30,0,0,1-22.64-9.79,32.45,32.45,0,0,1-9.28-23.14A33.27,33.27,0,0,1,420,143.82,30.11,30.11,0,0,1,443,134q14.17,0,23.3,9.62t9.12,23.82a32,32,0,0,1-9.45,23.32" transform="translate(-101.28 -89.08)"/><path class="b4d4d8d5-776b-450c-b3a6-0b27a2817a7f" d="M111.84,120.51a8.78,8.78,0,0,0-8.79,8.79v76a8.78,8.78,0,1,0,17.57,0v-76a8.79,8.79,0,0,0-8.78-8.79" transform="translate(-101.28 -89.08)"/><path class="b4d4d8d5-776b-450c-b3a6-0b27a2817a7f" d="M111.84,89.09a10.57,10.57,0,1,0,10.56,10.57,10.57,10.57,0,0,0-10.56-10.57" transform="translate(-101.28 -89.08)"/><path class="f10d42b8-c5a5-4c11-babc-f0fc8f4ceeb8" d="M296.24,120.51a8.78,8.78,0,0,0-8.78,8.79v76a8.78,8.78,0,1,0,17.57,0v-76a8.79,8.79,0,0,0-8.78-8.79" transform="translate(-101.28 -89.08)"/><path class="f10d42b8-c5a5-4c11-babc-f0fc8f4ceeb8" d="M296.24,89.09a10.57,10.57,0,1,0,10.57,10.57,10.57,10.57,0,0,0-10.57-10.57" transform="translate(-101.28 -89.08)"/></svg>