<?xml version="1.0" encoding="utf-8"?>
<!-- Generator: Adobe Illustrator 22.0.1, SVG Export Plug-In . SVG Version: 6.00 Build 0)  -->
<svg version="1.1" id="Capa_1" xmlns="http://www.w3.org/2000/svg" xmlns:xlink="http://www.w3.org/1999/xlink" x="0px" y="0px"
	 viewBox="0 0 500 500" style="enable-background:new 0 0 500 500;" xml:space="preserve">
<style type="text/css">
	.st0{fill:#FFFFFF;}
	.st1{fill:#E37538;}
	.st2{fill:none;stroke:#E37538;stroke-width:3;stroke-linecap:round;stroke-linejoin:round;stroke-miterlimit:10;}
	.st3{fill:none;stroke:#E37538;stroke-width:2;stroke-linecap:round;stroke-linejoin:round;stroke-miterlimit:10;}
</style>
<g>
	<path class="st0" d="M250,39.8c115.9,0,210.2,94.3,210.2,210.2S365.9,460.2,250,460.2S39.8,365.9,39.8,250S134.1,39.8,250,39.8
		 M250,0C111.9,0,0,111.9,0,250c0,138.1,111.9,250,250,250s250-111.9,250-250C500,111.9,388.1,0,250,0L250,0z"/>
</g>
<g>
	<path class="st1" d="M384.6,766.7c29.1,0,52.8,23.7,52.8,52.8s-23.7,52.8-52.8,52.8s-52.8-23.7-52.8-52.8S355.5,766.7,384.6,766.7
		 M384.6,756.7c-34.7,0-62.8,28.1-62.8,62.8c0,34.7,28.1,62.8,62.8,62.8s62.8-28.1,62.8-62.8C447.4,784.8,419.3,756.7,384.6,756.7
		L384.6,756.7z"/>
</g>
<g>
	<g>
		<path class="st0" d="M322.1,362.7H177.9c-29.6,0-53.7-24.1-53.7-53.7V191c0-29.6,24.1-53.7,53.7-53.7h144.3
			c29.6,0,53.7,24.1,53.7,53.7V309C375.9,338.6,351.8,362.7,322.1,362.7z M177.9,149.3c-23,0-41.8,18.7-41.8,41.8V309
			c0,23,18.7,41.8,41.8,41.8h144.3c23,0,41.8-18.7,41.8-41.8V191c0-23-18.7-41.8-41.8-41.8H177.9z"/>
	</g>
	<g>
		<path class="st0" d="M278.9,217h-57.9c-15,0-27.2-12.2-27.2-27.2c0-15,12.2-27.2,27.2-27.2h57.9c15,0,27.2,12.2,27.2,27.2
			C306.1,204.8,293.9,217,278.9,217z M221.1,170.6c-10.6,0-19.2,8.6-19.2,19.2c0,10.6,8.6,19.2,19.2,19.2h57.9
			c10.6,0,19.2-8.6,19.2-19.2c0-10.6-8.6-19.2-19.2-19.2H221.1z"/>
	</g>
	<g>
		<path class="st0" d="M260.9,217h-21.7c-1.3,0-2.5-0.7-3.3-1.7c-0.7-1.1-0.9-2.5-0.4-3.7l10.9-27.5c0.6-1.5,2.1-2.5,3.7-2.5
			c1.6,0,3.1,1,3.7,2.5l10.9,27.5c0.5,1.2,0.3,2.6-0.4,3.7C263.4,216.3,262.2,217,260.9,217z M245,209h10l-5-12.7L245,209z"/>
	</g>
</g>
<g>
	<path class="st2" d="M385.1,793.8l0,12.6l-21.2-21.3v45.3c0,13.2,10.7,24,24,24c13.2,0,24-10.7,24-24c0-6.3-2.4-12-6.3-16.2
		L385.1,793.8z"/>
	<circle class="st3" cx="387.8" cy="835" r="12.4"/>
</g>
</svg>
