<?xml version="1.0" encoding="utf-8"?>
<!-- Generator: Adobe Illustrator 22.0.1, SVG Export Plug-In . SVG Version: 6.00 Build 0)  -->
<svg version="1.1" id="Capa_1" xmlns="http://www.w3.org/2000/svg" xmlns:xlink="http://www.w3.org/1999/xlink" x="0px" y="0px"
	 viewBox="0 0 500 500" style="enable-background:new 0 0 500 500;" xml:space="preserve">
<style type="text/css">
	.st0{fill:#FFFFFF;}
	.st1{fill:#E37538;}
	.st2{fill:none;stroke:#E37538;stroke-width:3;stroke-linecap:round;stroke-linejoin:round;stroke-miterlimit:10;}
	.st3{fill:none;stroke:#E37538;stroke-width:2;stroke-linecap:round;stroke-linejoin:round;stroke-miterlimit:10;}
</style>
<g>
	<path class="st0" d="M250,39.8c115.9,0,210.2,94.3,210.2,210.2S365.9,460.2,250,460.2S39.8,365.9,39.8,250S134.1,39.8,250,39.8
		 M250,0C111.9,0,0,111.9,0,250c0,138.1,111.9,250,250,250s250-111.9,250-250C500,111.9,388.1,0,250,0L250,0z"/>
</g>
<g>
	<path class="st1" d="M202,766.7c29.1,0,52.8,23.7,52.8,52.8s-23.7,52.8-52.8,52.8s-52.8-23.7-52.8-52.8S172.8,766.7,202,766.7
		 M202,756.7c-34.7,0-62.8,28.1-62.8,62.8c0,34.7,28.1,62.8,62.8,62.8s62.8-28.1,62.8-62.8C264.8,784.8,236.6,756.7,202,756.7
		L202,756.7z"/>
</g>
<g>
	<path class="st1" d="M384.6,766.7c29.1,0,52.8,23.7,52.8,52.8s-23.7,52.8-52.8,52.8s-52.8-23.7-52.8-52.8S355.5,766.7,384.6,766.7
		 M384.6,756.7c-34.7,0-62.8,28.1-62.8,62.8c0,34.7,28.1,62.8,62.8,62.8s62.8-28.1,62.8-62.8C447.4,784.8,419.3,756.7,384.6,756.7
		L384.6,756.7z"/>
</g>
<g>
	<g>
		<path class="st0" d="M198.7,214.4c-29.3,0-53.2-23.9-53.2-53.2v-52.9c0-3.3,2.7-6,6-6c3.3,0,6,2.7,6,6v52.9
			c0,22.8,18.5,41.3,41.2,41.3c22.8,0,41.3-18.5,41.3-41.3v-52.9c0-3.3,2.7-6,6-6c3.3,0,6,2.7,6,6v52.9
			C252,190.5,228.1,214.4,198.7,214.4z"/>
	</g>
	<g>
		<path class="st0" d="M198.7,397.7c-12,0-21.7-9.7-21.7-21.7c0-0.1,0-0.3,0-0.4V108.3c0-3.3,2.7-6,6-6s6,2.7,6,6v267.6
			c0,0.1,0,0.2,0,0.3c0.2,5.2,4.5,9.5,9.8,9.5c5.3,0,9.6-4.2,9.8-9.5c0-0.1,0-0.2,0-0.3V108.3c0-3.3,2.7-6,6-6s6,2.7,6,6v267.2
			c0,0.1,0,0.3,0,0.4C220.5,387.9,210.7,397.7,198.7,397.7z"/>
	</g>
	<g>
		<path class="st0" d="M307.4,397.7c-12,0-21.7-9.7-21.7-21.7V108.3c0-2.6,1.7-4.9,4.2-5.7c2.5-0.8,5.2,0.2,6.7,2.3
			c0.2,0.2,15.8,23,31.7,50.2c2.7,4.5,5.1,8.6,7.3,12.2c10.8,18,16.8,27.9,18.4,46.4c0,0.1,0,0.2,0,0.3c0.1,1.2,0.2,2.2,0.3,3.2
			c0.1,1.3,0.1,2.7,0.1,4c0,3.3-2.7,6-6,6c-3.3,0-6-2.7-6-6c0-1.1-0.1-2.3-0.1-3.4c0-0.8-0.1-1.7-0.2-2.5c0-0.1,0-0.4-0.1-0.6
			c-1.4-15.7-6.2-23.7-16.7-41.2c-2.2-3.7-4.7-7.8-7.4-12.4c-7.4-12.6-14.7-24.2-20.4-33V376c0,5.4,4.4,9.8,9.8,9.8
			c2.6,0,5.1-1,6.9-2.8c1.9-1.9,2.9-4.3,2.9-6.9V273.2c0-3.3,2.7-6,6-6c3.3,0,6,2.7,6,6V376c0,5.8-2.3,11.3-6.4,15.4
			C318.7,395.4,313.2,397.7,307.4,397.7z"/>
	</g>
	<g>
		<path class="st0" d="M291.6,289.3c-3.3,0-6-2.7-6-6c0-3.3,2.7-6,6-6c10.2,0,19.8-3.1,28-9c14.9-10.8,22.8-27.1,22.8-47.1
			c0-1.1-0.1-2.3-0.1-3.4c0-0.8-0.1-1.7-0.2-2.5c0-0.2-0.1-0.7-0.1-0.9c0-3.3,2.7-6,6-6c3.2,0,5.8,2.5,6,5.7
			c0.1,1.2,0.2,2.2,0.3,3.2c0.1,1.3,0.1,2.7,0.1,4c0,23.7-9.9,43.9-27.8,56.8C316.4,285.4,304.3,289.3,291.6,289.3z"/>
	</g>
</g>
<g>
	<path class="st2" d="M220,846.3h-36.3c-6.6,0-12-5.4-12-12v-29.6c0-6.6,5.4-12,12-12H220c6.6,0,12,5.4,12,12v29.6
		C232,840.9,226.6,846.3,220,846.3z"/>
	<path class="st3" d="M209.2,810.2h-14.5c-3.2,0-5.8-2.6-5.8-5.8l0,0c0-3.2,2.6-5.8,5.8-5.8h14.5c3.2,0,5.8,2.6,5.8,5.8l0,0
		C215,807.6,212.4,810.2,209.2,810.2z"/>
	<polygon class="st3" points="201.9,803.3 199.2,810.2 201.9,810.2 204.6,810.2 	"/>
</g>
<g>
	<path class="st2" d="M385.1,793.8l0,12.6l-21.2-21.3v45.3c0,13.2,10.7,24,24,24c13.2,0,24-10.7,24-24c0-6.3-2.4-12-6.3-16.2
		L385.1,793.8z"/>
	<circle class="st3" cx="387.8" cy="835" r="12.4"/>
</g>
</svg>
