<?xml version="1.0" encoding="utf-8"?>
<!-- Generator: Adobe Illustrator 22.0.1, SVG Export Plug-In . SVG Version: 6.00 Build 0)  -->
<svg version="1.1" id="Capa_1" xmlns="http://www.w3.org/2000/svg" xmlns:xlink="http://www.w3.org/1999/xlink" x="0px" y="0px"
	 viewBox="0 0 500 500" style="enable-background:new 0 0 500 500;" xml:space="preserve">
<style type="text/css">
	.st0{fill:#E37538;}
</style>
<g>
	<g>
		<path class="st0" d="M250,39.8c115.9,0,210.2,94.3,210.2,210.2S365.9,460.2,250,460.2S39.8,365.9,39.8,250S134.1,39.8,250,39.8
			 M250,0C111.9,0,0,111.9,0,250s111.9,250,250,250c138.1,0,250-111.9,250-250S388.1,0,250,0L250,0z"/>
	</g>
	<g>
		<g>
			<path class="st0" d="M359.3,393.8H140.7c-3.3,0-6-2.7-6-6V112.2c0-3.3,2.7-6,6-6h172.2c3.3,0,6,2.7,6,6c0,3.3-2.7,6-6,6H146.7
				v263.6h206.6V158.6c0-3.3,2.7-6,6-6s6,2.7,6,6v229.2C365.2,391.1,362.6,393.8,359.3,393.8z"/>
		</g>
		<g>
			<path class="st0" d="M359.3,164.5h-46.3c-3.3,0-6-2.7-6-6v-46.3c0-2.4,1.5-4.6,3.7-5.5c2.2-0.9,4.8-0.4,6.5,1.3l46.3,46.3
				c1.7,1.7,2.2,4.3,1.3,6.5C363.9,163.1,361.7,164.5,359.3,164.5z M318.9,152.6h26l-26-26V152.6z"/>
		</g>
		<g>
			<path class="st0" d="M328.1,209.8H171.9c-2.2,0-4-1.8-4-4s1.8-4,4-4h156.2c2.2,0,4,1.8,4,4S330.3,209.8,328.1,209.8z"/>
		</g>
		<g>
			<path class="st0" d="M328.1,239.9H171.9c-2.2,0-4-1.8-4-4s1.8-4,4-4h156.2c2.2,0,4,1.8,4,4S330.3,239.9,328.1,239.9z"/>
		</g>
		<g>
			<path class="st0" d="M328.1,270.1H171.9c-2.2,0-4-1.8-4-4c0-2.2,1.8-4,4-4h156.2c2.2,0,4,1.8,4,4
				C332.1,268.3,330.3,270.1,328.1,270.1z"/>
		</g>
		<g>
			<path class="st0" d="M250,300.2h-78.1c-2.2,0-4-1.8-4-4c0-2.2,1.8-4,4-4H250c2.2,0,4,1.8,4,4C254,298.5,252.2,300.2,250,300.2z"
				/>
		</g>
	</g>
</g>
</svg>
