<?xml version="1.0" encoding="utf-8"?>
<!-- Generator: Adobe Illustrator 22.0.1, SVG Export Plug-In . SVG Version: 6.00 Build 0)  -->
<svg version="1.1" id="Capa_1" xmlns="http://www.w3.org/2000/svg" xmlns:xlink="http://www.w3.org/1999/xlink" x="0px" y="0px"
	 viewBox="0 0 500 500" style="enable-background:new 0 0 500 500;" xml:space="preserve">
<style type="text/css">
	.st0{fill:#FFFFFF;}
</style>
<g>
	<path class="st0" d="M250,39.8c115.9,0,210.2,94.3,210.2,210.2S365.9,460.2,250,460.2S39.8,365.9,39.8,250S134.1,39.8,250,39.8
		 M250,0C111.9,0,0,111.9,0,250s111.9,250,250,250s250-111.9,250-250S388.1,0,250,0L250,0z"/>
</g>
<g>
	<g>
		<path class="st0" d="M250,172.4c-18.1,0-32.9-14.8-32.9-32.9c0-18.1,14.8-32.9,32.9-32.9c18.1,0,32.9,14.8,32.9,32.9
			C282.9,157.6,268.1,172.4,250,172.4z M250,118.6c-11.6,0-21,9.4-21,20.9c0,11.6,9.4,21,21,21c11.5,0,20.9-9.4,20.9-21
			C270.9,128,261.5,118.6,250,118.6z"/>
	</g>
	<g>
		<path class="st0" d="M284.4,393.4h-26c-3.3,0-6-2.7-6-6v-90h-4.9v90c0,3.3-2.7,6-6,6h-26c-3.3,0-6-2.7-6-6V214.7h-60
			c-3.3,0-6-2.7-6-6v-26c0-3.3,2.7-6,6-6h200.7c3.3,0,6,2.7,6,6v26c0,3.3-2.7,6-6,6h-60v172.7C290.4,390.7,287.7,393.4,284.4,393.4z
			 M264.4,381.4h14.1V208.7c0-3.3,2.7-6,6-6h60v-14.1H155.6v14.1h60c3.3,0,6,2.7,6,6v172.7h14.1v-90c0-3.3,2.7-6,6-6h16.9
			c3.3,0,6,2.7,6,6V381.4z"/>
	</g>
</g>
</svg>
