<?xml version="1.0" encoding="utf-8"?>
<!-- Generator: Adobe Illustrator 22.0.1, SVG Export Plug-In . SVG Version: 6.00 Build 0)  -->
<svg version="1.1" id="Capa_1" xmlns="http://www.w3.org/2000/svg" xmlns:xlink="http://www.w3.org/1999/xlink" x="0px" y="0px"
	 viewBox="0 0 500 500" style="enable-background:new 0 0 500 500;" xml:space="preserve">
<style type="text/css">
	.st0{fill:#FFFFFF;}
</style>
<g>
	<g>
		<path class="st0" d="M253.7,42.9c114.2,0,207.1,92.9,207.1,207.1s-92.9,207.1-207.1,207.1S46.6,364.2,46.6,250
			S139.5,42.9,253.7,42.9 M253.7,3.7C117.6,3.7,7.3,114,7.3,250s110.3,246.3,246.3,246.3S500,386,500,250S389.7,3.7,253.7,3.7
			L253.7,3.7z"/>
	</g>
	<g>
		<g>
			<path class="st0" d="M5.9,420.8c-1.5,0-3-0.6-4.2-1.7c-2.3-2.3-2.3-6,0-8.3l148.4-148.4c2.2-2.2,6.1-2.2,8.3,0l45.6,45.6
				l134.2-134.2h-70.6c-3.2,0-5.9-2.6-5.9-5.9s2.6-5.9,5.9-5.9h84.8c2.4,0,4.5,1.4,5.4,3.6c0.9,2.2,0.4,4.7-1.3,6.4L208.2,320.4
				c-2.3,2.3-6,2.3-8.3,0l-45.6-45.6L10,419C8.9,420.2,7.4,420.8,5.9,420.8z"/>
		</g>
		<g>
			<path class="st0" d="M352.4,258.2c-3.2,0-5.9-2.6-5.9-5.9v-84.5c0-3.2,2.6-5.9,5.9-5.9s5.9,2.6,5.9,5.9v84.5
				C358.3,255.5,355.7,258.2,352.4,258.2z"/>
		</g>
	</g>
</g>
</svg>
