<?xml version="1.0" encoding="utf-8"?>
<!-- Generator: Adobe Illustrator 22.0.1, SVG Export Plug-In . SVG Version: 6.00 Build 0)  -->
<svg version="1.1" id="Capa_1" xmlns="http://www.w3.org/2000/svg" xmlns:xlink="http://www.w3.org/1999/xlink" x="0px" y="0px"
	 viewBox="0 0 500 500" style="enable-background:new 0 0 500 500;" xml:space="preserve">
<style type="text/css">
	.st0{fill:#E37538;}
</style>
<g>
	<path class="st0" d="M250,39.8c115.9,0,210.2,94.3,210.2,210.2S365.9,460.2,250,460.2S39.8,365.9,39.8,250S134.1,39.8,250,39.8
		 M250,0C111.9,0,0,111.9,0,250s111.9,250,250,250s250-111.9,250-250S388.1,0,250,0L250,0z"/>
</g>
<g>
	<g>
		<path class="st0" d="M250,392.6c-78.6,0-142.6-64-142.6-142.6s64-142.6,142.6-142.6s142.6,64,142.6,142.6S328.6,392.6,250,392.6z
			 M250,119.4c-72,0-130.6,58.6-130.6,130.6S178,380.6,250,380.6c72,0,130.6-58.6,130.6-130.6S322,119.4,250,119.4z"/>
	</g>
	<g>
		<path class="st0" d="M250,309.8c-20,0-39.3-4.1-57.4-12.1c-3-1.3-4.4-4.9-3-7.9c1.3-3,4.9-4.4,7.9-3c16.5,7.3,34.2,11.1,52.5,11.1
			c18,0,35.4-3.6,51.7-10.7c3-1.3,6.5,0.1,7.8,3.1c1.3,3-0.1,6.5-3.1,7.9C288.6,305.8,269.6,309.8,250,309.8z"/>
	</g>
	<g>
		<circle class="st0" cx="207.3" cy="217.1" r="14.7"/>
	</g>
	<g>
		<circle class="st0" cx="292.7" cy="217.1" r="14.7"/>
	</g>
</g>
</svg>
