<?xml version="1.0" encoding="utf-8"?>
<!-- Generator: Adobe Illustrator 22.0.1, SVG Export Plug-In . SVG Version: 6.00 Build 0)  -->
<svg version="1.1" id="Capa_1" xmlns="http://www.w3.org/2000/svg" xmlns:xlink="http://www.w3.org/1999/xlink" x="0px" y="0px"
	 viewBox="0 0 500 500" style="enable-background:new 0 0 500 500;" xml:space="preserve">
<style type="text/css">
	.st0{fill:#FFFFFF;}
</style>
<g>
	<path class="st0" d="M250,39.8c115.9,0,210.2,94.3,210.2,210.2S365.9,460.2,250,460.2S39.8,365.9,39.8,250S134.1,39.8,250,39.8
		 M250,0C111.9,0,0,111.9,0,250c0,138.1,111.9,250,250,250s250-111.9,250-250C500,111.9,388.1,0,250,0L250,0z"/>
</g>
<g>
	<g>
		<path class="st0" d="M250,393.8c-55.9,0-101.5-45.5-101.5-101.5V112.2c0-2.4,1.5-4.6,3.7-5.5c2.2-0.9,4.8-0.4,6.5,1.3l74.4,74.4
			l0.1-35.8c0-2.4,1.5-4.6,3.7-5.5c2.2-0.9,4.8-0.4,6.5,1.3l81.1,81.2c17.4,18.9,27,43.3,27,68.8C351.5,348.3,305.9,393.8,250,393.8
			z M160.5,126.6v165.8c0,49.4,40.2,89.5,89.5,89.5c49.4,0,89.5-40.2,89.5-89.5c0-22.5-8.4-44-23.6-60.6L245.1,161l-0.1,35.8
			c0,2.4-1.5,4.6-3.7,5.5c-2.2,0.9-4.8,0.4-6.5-1.3L160.5,126.6z"/>
	</g>
	<g>
		<path class="st0" d="M250,363.6c-29.3,0-53.2-23.9-53.2-53.2c0-29.3,23.9-53.2,53.2-53.2s53.2,23.9,53.2,53.2
			C303.2,339.7,279.3,363.6,250,363.6z M250,265.2c-24.9,0-45.2,20.3-45.2,45.2c0,24.9,20.3,45.2,45.2,45.2
			c24.9,0,45.2-20.3,45.2-45.2C295.2,285.5,274.9,265.2,250,265.2z"/>
	</g>
</g>
</svg>
