<?xml version="1.0" encoding="utf-8"?>
<!-- Generator: Adobe Illustrator 22.0.1, SVG Export Plug-In . SVG Version: 6.00 Build 0)  -->
<svg version="1.1" id="Capa_1" xmlns="http://www.w3.org/2000/svg" xmlns:xlink="http://www.w3.org/1999/xlink" x="0px" y="0px"
	 viewBox="0 0 500 500" style="enable-background:new 0 0 500 500;" xml:space="preserve">
<style type="text/css">
	.st0{fill:#FFFFFF;}
</style>
<g>
	<path class="st0" d="M250,39.8c115.9,0,210.2,94.3,210.2,210.2S365.9,460.2,250,460.2S39.8,365.9,39.8,250S134.1,39.8,250,39.8
		 M250,0C111.9,0,0,111.9,0,250s111.9,250,250,250s250-111.9,250-250S388.1,0,250,0L250,0z"/>
</g>
<g>
	<g>
		<path class="st0" d="M285.7,392.6c-9.1,0-18-2.8-24.3-8c-3.4-2.8-9.3-3.1-11.1-3c-0.2,0-0.5,0-0.7,0c-1.9-0.1-7.7,0.3-11.1,3
			c-7.7,6.2-18.8,9.1-29.8,7.7c-9.6-1.2-23.5-6-35.5-22.2c-20.3-27.3-40-58.3-39.6-110.4c0.3-30.9,14.1-48.8,25.7-58.5
			c14.7-12.3,32.2-16.5,43.7-16.5c8.8,0,16.6,3.1,24.2,6.1c7.6,3,14.7,5.7,22.7,5.7c8,0,15.2-2.8,22.7-5.7c7.6-3,15.4-6,24.2-6.1
			l0,0c28.6,0,68.9,23,69.4,75c0.4,52.1-19.3,83.1-39.6,110.4c-12,16.1-25.9,21-35.5,22.2C289.4,392.5,287.6,392.6,285.7,392.6z
			 M250.9,369.6c3.3,0,11.7,0.5,18,5.7c5.2,4.2,13,6.1,20.8,5.1c7.3-0.9,17.9-4.7,27.4-17.4c19.1-25.7,37.6-54.8,37.2-103.2
			c-0.4-51.6-42.4-63.1-57.2-63.1c0,0-0.1,0-0.1,0l0,0c-6.6,0-13,2.6-19.9,5.2c-7.9,3.1-16.8,6.6-27.1,6.6
			c-10.3,0-19.2-3.5-27.1-6.6c-6.9-2.7-13.3-5.2-19.9-5.2c0,0-0.1,0-0.1,0c-14.9,0-56.8,11.5-57.2,63.1
			c-0.4,48.4,18.2,77.5,37.2,103.2c9.5,12.8,20.1,16.5,27.4,17.4c7.9,1,15.7-0.9,20.8-5.1c7.1-5.7,16.7-5.7,18.9-5.6
			C250.2,369.6,250.5,369.6,250.9,369.6z"/>
	</g>
	<g>
		<path class="st0" d="M250.7,189.7c-2.5,0-4.9-1.6-5.7-4.1c-5.2-15.9-3.8-32.7,3.9-47.5c7.7-14.8,20.8-25.6,36.7-30.4
			c3.1-0.9,6.4,0.8,7.4,3.9c5.2,15.9,3.8,32.7-3.9,47.5c-7.7,14.8-20.7,25.5-36.7,30.4C251.8,189.6,251.3,189.7,250.7,189.7z
			 M283.3,121.3c-10.2,4.5-18.5,12.3-23.8,22.3c-5.2,10-6.9,21.3-4.7,32.2c10.2-4.5,18.5-12.3,23.8-22.3
			C283.8,143.5,285.4,132.2,283.3,121.3z"/>
	</g>
</g>
</svg>
