<?xml version="1.0" encoding="utf-8"?>
<!-- Generator: Adobe Illustrator 22.0.1, SVG Export Plug-In . SVG Version: 6.00 Build 0)  -->
<svg version="1.1" id="Capa_1" xmlns="http://www.w3.org/2000/svg" xmlns:xlink="http://www.w3.org/1999/xlink" x="0px" y="0px"
	 viewBox="0 0 500 500" style="enable-background:new 0 0 500 500;" xml:space="preserve">
<style type="text/css">
	.st0{fill:#E37538;}
</style>
<path class="st0" d="M250,39.8c115.9,0,210.2,94.3,210.2,210.2S365.9,460.2,250,460.2S39.8,365.9,39.8,250S134.1,39.8,250,39.8
	 M250,0C111.9,0,0,111.9,0,250s111.9,250,250,250s250-111.9,250-250S388.1,0,250,0L250,0z"/>
<g>
	<path class="st0" d="M346.4,340.2c-24.9,0-45.2-20.3-45.2-45.2v-12.9H198.9V295c0,24.9-20.3,45.2-45.2,45.2s-45.2-20.3-45.2-45.2
		V205c0-24.9,20.3-45.2,45.2-45.2s45.2,20.3,45.2,45.2v12.9h102.3V205c0-24.9,20.3-45.2,45.2-45.2c24.9,0,45.2,20.3,45.2,45.2V295
		C391.6,319.9,371.3,340.2,346.4,340.2z M192.9,270.1h114.2c3.3,0,6,2.7,6,6V295c0,18.4,14.9,33.3,33.3,33.3
		c18.4,0,33.3-14.9,33.3-33.3V205c0-18.4-14.9-33.3-33.3-33.3c-18.4,0-33.3,14.9-33.3,33.3v18.9c0,3.3-2.7,6-6,6H192.9
		c-3.3,0-6-2.7-6-6V205c0-18.4-14.9-33.3-33.3-33.3s-33.3,14.9-33.3,33.3V295c0,18.4,14.9,33.3,33.3,33.3s33.3-14.9,33.3-33.3v-18.9
		C186.9,272.8,189.6,270.1,192.9,270.1z"/>
</g>
</svg>
