<?xml version="1.0" encoding="utf-8"?>
<!-- Generator: Adobe Illustrator 22.0.1, SVG Export Plug-In . SVG Version: 6.00 Build 0)  -->
<svg version="1.1" id="Capa_1" xmlns="http://www.w3.org/2000/svg" xmlns:xlink="http://www.w3.org/1999/xlink" x="0px" y="0px"
	 viewBox="0 0 500 500" style="enable-background:new 0 0 500 500;" xml:space="preserve">
<style type="text/css">
	.st0{fill:#E37538;}
</style>
<g>
	<g>
		<path class="st0" d="M250,39.8c115.9,0,210.2,94.3,210.2,210.2S365.9,460.2,250,460.2S39.8,365.9,39.8,250S134.1,39.8,250,39.8
			 M250,0C111.9,0,0,111.9,0,250s111.9,250,250,250s250-111.9,250-250S388.1,0,250,0L250,0z"/>
	</g>
	<g>
		<g>
			<path class="st0" d="M297.4,401.4h-94.9c-19.7,0-35.8-16-35.8-35.8V149.4c0-19.7,16-35.8,35.8-35.8h94.9
				c19.7,0,35.8,16,35.8,35.8v216.3C333.2,385.4,317.2,401.4,297.4,401.4z M202.6,125.6c-13.1,0-23.8,10.7-23.8,23.8v216.3
				c0,13.1,10.7,23.8,23.8,23.8h94.9c13.1,0,23.8-10.7,23.8-23.8V149.4c0-13.1-10.7-23.8-23.8-23.8H202.6z"/>
		</g>
		<g>
			<path class="st0" d="M250,380c-9.3,0-16.8-7.5-16.8-16.8s7.5-16.8,16.8-16.8s16.8,7.5,16.8,16.8S259.3,380,250,380z M250,354.4
				c-4.9,0-8.8,4-8.8,8.8s4,8.8,8.8,8.8c4.9,0,8.8-4,8.8-8.8S254.9,354.4,250,354.4z"/>
		</g>
		<g>
			<path class="st0" d="M267.1,142.6h-34.3c-2.2,0-4-1.8-4-4s1.8-4,4-4h34.3c2.2,0,4,1.8,4,4S269.3,142.6,267.1,142.6z"/>
		</g>
	</g>
</g>
</svg>
