<?xml version="1.0" encoding="utf-8"?>
<!-- Generator: Adobe Illustrator 22.0.1, SVG Export Plug-In . SVG Version: 6.00 Build 0)  -->
<svg version="1.1" id="Capa_1" xmlns="http://www.w3.org/2000/svg" xmlns:xlink="http://www.w3.org/1999/xlink" x="0px" y="0px"
	 viewBox="0 0 500 500" style="enable-background:new 0 0 500 500;" xml:space="preserve">
<style type="text/css">
	.st0{fill:#E37538;}
</style>
<path class="st0" d="M250,39.8c115.9,0,210.2,94.3,210.2,210.2S365.9,460.2,250,460.2S39.8,365.9,39.8,250S134.1,39.8,250,39.8
	 M250,0C111.9,0,0,111.9,0,250s111.9,250,250,250c138.1,0,250-111.9,250-250S388.1,0,250,0L250,0z"/>
<g>
	<g>
		<g>
			<path class="st0" d="M250,394.3c-5.6,0-10.8-2.8-14-7.4l-73.9-108.1c-13.7-18.6-21-40.9-21-64.2c0-60,48.8-108.9,108.9-108.9
				c60,0,108.9,48.8,108.9,108.9c0,23.3-7.3,45.5-21,64.3l-73.9,108C260.8,391.5,255.6,394.3,250,394.3z M250,117.7
				c-53.4,0-96.9,43.5-96.9,96.9c0,20.8,6.5,40.6,18.8,57.3l74,108.2c1.9,2.8,6.4,2.8,8.3,0l73.4-107.4l0.2-0.5l0.7-0.7
				c12.1-16.6,18.5-36.3,18.5-57C346.9,161.1,303.4,117.7,250,117.7z"/>
		</g>
	</g>
	<g>
		<path class="st0" d="M250,251.7c-21.9,0-39.7-17.8-39.7-39.7s17.8-39.7,39.7-39.7c21.9,0,39.7,17.8,39.7,39.7
			S271.9,251.7,250,251.7z M250,180.3c-17.5,0-31.7,14.2-31.7,31.7s14.2,31.7,31.7,31.7s31.7-14.2,31.7-31.7S267.5,180.3,250,180.3z
			"/>
	</g>
</g>
</svg>
